<?xml version="1.0" encoding="UTF-8"?><svg xmlns="http://www.w3.org/2000/svg" viewBox="0 0 300 146"><defs><style>.d{fill:#e8e1d4;}.e{fill:#312422;}.f{fill:#dfd8cb;}.g{fill:none;stroke:#dfd8cb;stroke-miterlimit:10;}</style></defs><g id="a"/><g id="b"><g id="c"><rect class="d" x="1" y="1" width="299" height="19"/><circle class="e" cx="56.5" cy="76.5" r="19.5"/><path class="d" d="M56.31,64.1c-5.31,0-9.64,4.28-9.69,9.59,0,6.64,8.54,14.03,8.9,14.34,.45,.39,1.12,.39,1.57,0,.42-.31,8.9-7.7,8.9-14.34-.05-5.31-4.38-9.6-9.69-9.59Zm0,21.38c-2.02-1.93-7.27-7.27-7.27-11.79,0-4.01,3.25-7.27,7.27-7.27s7.27,3.25,7.27,7.27c0,4.48-5.25,9.86-7.27,11.79Z"/><path class="f" d="M288.32,10l3.66-3.57c.33-.33,.33-.86,0-1.18s-.88-.33-1.21,0l-3.65,3.58-3.65-3.58c-.33-.33-.88-.33-1.21,0s-.33,.86,0,1.18l3.66,3.57-3.66,3.57c-.33,.32-.34,.85,0,1.18h0c.33,.33,.87,.33,1.2,0h0l3.65-3.59,3.65,3.58c.33,.33,.87,.33,1.2,0h0c.33-.33,.34-.86,0-1.18h0l-3.66-3.58Z"/><rect class="g" x=".5" y=".5" width="299" height="145"/></g></g></svg>