<?xml version="1.0" encoding="UTF-8"?><svg xmlns="http://www.w3.org/2000/svg" viewBox="0 0 41.84 60.99"><defs><style>.d{fill:#312422;}</style></defs><g id="a"/><g id="b"><g id="c"><path class="d" d="M20.89,41.85C9.44,41.86-.21,32.51,0,20.51,.2,9.23,9.46-.22,21.36,0c11.27,.21,20.71,9.47,20.47,21.39-.23,11.33-9.48,20.46-20.94,20.45Zm9.46-16.75c.78-3.01,.94-6.04,.3-9.1-.69-3.37-2.22-6.34-4.37-9-1.32-1.63-2.79-3.1-4.56-4.25-.33-.22-.59-.21-.92,.02-3.08,2.17-5.63,4.83-7.45,8.15-1.88,3.44-2.55,7.1-1.98,10.98,.39,2.69,1.35,5.19,2.65,7.56,.3,.54,.61,1.07,.92,1.61l-.07,.07c-.57-.44-1.16-.85-1.7-1.32-3.16-2.77-4.98-6.29-5.86-10.35-.1-.45-.13-.91-.26-1.35-.06-.21-.26-.39-.4-.58-.17,.14-.35,.27-.5,.43-.09,.1-.11,.26-.16,.4-1.11,3.36-1.32,6.78-.46,10.22,1.14,4.54,3.71,7.98,7.99,10,3.32,1.56,6.84,1.9,10.45,1.36,5.23-.79,8.9-3.64,10.94-8.51,1.29-3.08,1.56-6.31,1.08-9.6-.46-3.24-1.62-6.19-3.49-8.87-.1-.14-.19-.29-.32-.4-.07-.07-.24-.13-.3-.1-.07,.04-.12,.2-.11,.3,0,.15,.07,.31,.09,.46,.12,.75,.27,1.49,.36,2.24,.14,1.28,.03,2.56-.16,3.84-.3,2.02-.86,3.96-1.73,5.81Z"/><g><path class="d" d="M11.66,47.77c.65,0,1.24,.05,1.78,.16,.54,.11,1,.29,1.38,.53,.38,.25,.68,.58,.89,.99,.21,.41,.32,.92,.32,1.52,0,.65-.16,1.2-.47,1.63-.31,.43-.78,.79-1.39,1.07,.84,.23,1.47,.63,1.89,1.2,.41,.57,.62,1.27,.62,2.07,0,.65-.13,1.22-.4,1.69-.27,.48-.63,.87-1.08,1.17-.45,.3-.97,.53-1.55,.67-.58,.14-1.18,.22-1.79,.22H5.22v-12.93h6.44Zm-.38,5.23c.54,0,.98-.12,1.32-.36,.34-.24,.52-.63,.52-1.18,0-.3-.06-.55-.17-.74-.11-.19-.27-.34-.46-.45-.19-.11-.41-.18-.66-.23s-.51-.06-.78-.06h-2.82v3.03h3.05Zm.17,5.49c.29,0,.57-.03,.84-.08,.27-.05,.5-.14,.71-.27s.37-.3,.49-.52,.18-.49,.18-.83c0-.66-.2-1.14-.59-1.42-.4-.28-.92-.43-1.57-.43h-3.28v3.55h3.22Z"/><path class="d" d="M21.72,47.77v12.93h-3.01v-12.93h3.01Z"/><path class="d" d="M24.22,51.6c.31-.83,.75-1.55,1.32-2.16s1.28-1.1,2.12-1.45c.84-.35,1.78-.53,2.83-.53s2,.18,2.83,.53c.83,.35,1.53,.83,2.11,1.45,.57,.62,1.02,1.34,1.32,2.16,.31,.83,.46,1.72,.46,2.69s-.15,1.82-.46,2.64c-.31,.82-.75,1.52-1.32,2.13-.57,.6-1.28,1.08-2.11,1.42-.83,.34-1.78,.52-2.83,.52s-1.99-.17-2.83-.52c-.84-.34-1.54-.82-2.12-1.42s-1.02-1.31-1.32-2.13c-.31-.81-.46-1.69-.46-2.64s.15-1.86,.46-2.69Zm2.75,4.28c.13,.51,.35,.98,.64,1.39,.29,.41,.68,.74,1.15,.99,.47,.25,1.05,.37,1.72,.37s1.25-.12,1.72-.37c.47-.25,.86-.58,1.15-.99,.29-.41,.51-.87,.64-1.39s.2-1.04,.2-1.58-.07-1.12-.2-1.65c-.13-.53-.35-1.01-.64-1.42-.29-.42-.68-.75-1.15-1-.47-.25-1.05-.37-1.72-.37s-1.25,.12-1.72,.37c-.47,.25-.86,.58-1.15,1-.29,.42-.51,.89-.64,1.42-.13,.53-.2,1.08-.2,1.65s.07,1.07,.2,1.58Z"/></g></g></g></svg>