<?xml version="1.0" encoding="UTF-8"?><svg xmlns="http://www.w3.org/2000/svg" viewBox="0 0 231.56 98.42"><defs><style>.d{fill:#312422;}.e{fill:none;stroke:#cbc9b9;stroke-miterlimit:10;}</style></defs><g id="a"/><g id="b"><g id="c"><path class="d" d="M24.34,35.88c0,5.6-6.32,7.85-11.87,7.85-3.97,0-8.2-1.11-10.46-3.02-1.96-1.66-2.6-4.88-.42-6.71,1.51,4.67,5.58,9.53,10.88,9.53,4.46,0,9.05-2.22,9.05-6.37s-5.16-6.37-9.72-8.16c-4.54-1.77-9.57-3.79-9.57-8.14s5.3-6.6,9.91-6.6c2.83,0,4.56,.36,6.47,1.11,2.35,.93,3.57,3.31,1.29,5.13-.89-2.88-2.88-6.01-7.76-6.01s-7.86,2.54-7.86,5.15,2.33,3.95,7.86,6.26c5.87,2.45,12.19,4.4,12.19,10Z"/><path class="d" d="M52.51,38.69h.12l-.42,4.99H27.5v-.09h.62c1.96,0,3.1-.18,3.1-1.93V16.24c0-1.72-1.14-1.93-3.1-1.93h-.62v-.09h23.97l.42,4.99h-.12c-.3-3.02-.84-4.83-4.04-4.83h-13.31v15.83c.62-2.4,2.85-3.54,6.91-3.54h2.97c1.88,0,2.11-1.04,2.11-2.83v-.11h.1v6.06h-.1v-.11c0-1.79-.2-2.83-2.11-2.83h-2.97c-4.71,0-6.91,1.56-6.91,4.9v11.82h14.05c3.2,0,3.74-1.81,4.04-4.85Z"/><path class="d" d="M86.03,14.22h3.72v.09h-.62c-1.96,0-3.1,.18-3.1,1.93v25.45c0,1.72,1.14,1.93,3.1,1.93h.62v.09h-10.66v-.09h.62c1.96,0,3.1-.18,3.1-1.93V14.54l-11.55,17.67c1.64,2.63,2.9,5.08,2.9,6.96,0,2.7-1.49,4.54-4.51,4.54-1.86,0-3.05-1.13-3.05-2.93,0-1.5,1.41-3.88,2.68-5.83-.12-.23-.27-.45-.42-.68-1.19-1.91-8.85-14.11-11.57-18.48v25.88c0,1.72,1.14,1.93,3.1,1.93h.62v.09h-7.61v-.09h.62c1.96,0,3.1-.18,3.1-1.93V16.24c0-1.72-1.14-1.93-3.1-1.93h-.62v-.09h6.64c2.3,3.7,9.72,15.51,11.15,17.83l11.65-17.83h3.2Zm-13.93,26.69c0-1.38-1.26-3.52-2.7-5.81-1.24,1.95-2.6,4.29-2.6,5.67,0,1.77,1.14,2.77,2.87,2.77,1.49,0,2.43-1.04,2.43-2.63Z"/><path class="d" d="M115.51,38.69h.12l-.42,4.99h-24.71v-.09h.62c1.96,0,3.1-.18,3.1-1.93V16.24c0-1.72-1.14-1.93-3.1-1.93h-.62v-.09h23.97l.42,4.99h-.12c-.3-3.02-.84-4.83-4.04-4.83h-13.31v15.83c.62-2.4,2.85-3.54,6.91-3.54h2.97c1.88,0,2.11-1.04,2.11-2.83v-.11h.1v6.06h-.1v-.11c0-1.79-.2-2.83-2.11-2.83h-2.97c-4.71,0-6.91,1.56-6.91,4.9v11.82h14.05c3.2,0,3.74-1.81,4.04-4.85Z"/><path class="d" d="M142.79,14.22h3.72v.09h-.62c-1.96,0-3.1,.18-3.1,1.93v27.46h-.17l-22.33-28.05v26.01c0,1.72,1.14,1.93,3.1,1.93h.62v.09h-7.61v-.09h.62c1.96,0,3.1-.18,3.1-1.93V16.24c0-1.72-1.14-1.93-3.1-1.93h-.62v-.09h6.74l19.48,24.47V16.24c0-1.72-1.14-1.93-3.1-1.93h-.62v-.09h3.89Z"/><path class="d" d="M175.77,36.79l.22,.11c-2.26,4.11-6.37,6.8-12.37,6.8-9.37,0-13.95-6.6-13.95-14.74s4.93-14.74,14.28-14.74c4.68,0,8.38,1.56,10.83,4.26,1.88,2.06,1.54,5.22-1.02,6.28-1.16-6.24-4.63-10.32-9.81-10.32-6.25,0-10.56,6.37-10.56,14.51s5.03,13.93,11.28,13.93c4.61,0,8.72-1.72,11.1-6.1Z"/><path class="d" d="M204.17,38.69h.12l-.42,4.99h-24.71v-.09h.62c1.96,0,3.1-.18,3.1-1.93V16.24c0-1.72-1.14-1.93-3.1-1.93h-.62v-.09h23.97l.42,4.99h-.12c-.3-3.02-.84-4.83-4.04-4.83h-13.31v15.83c.62-2.4,2.85-3.54,6.92-3.54h2.97c1.88,0,2.11-1.04,2.11-2.83v-.11h.1v6.06h-.1v-.11c0-1.79-.2-2.83-2.11-2.83h-2.97c-4.71,0-6.92,1.56-6.92,4.9v11.82h14.05c3.2,0,3.74-1.81,4.04-4.85Z"/><path class="d" d="M231.56,35.88c0,5.6-6.32,7.85-11.87,7.85-3.97,0-8.2-1.11-10.46-3.02-1.96-1.66-2.6-4.88-.42-6.71,1.51,4.67,5.58,9.53,10.88,9.53,4.46,0,9.05-2.22,9.05-6.37s-5.15-6.37-9.72-8.16c-4.54-1.77-9.57-3.79-9.57-8.14s5.3-6.6,9.91-6.6c2.83,0,4.56,.36,6.47,1.11,2.35,.93,3.57,3.31,1.29,5.13-.89-2.88-2.88-6.01-7.76-6.01s-7.86,2.54-7.86,5.15,2.33,3.95,7.86,6.26c5.87,2.45,12.19,4.4,12.19,10Z"/><path class="d" d="M40.85,81.13v.05h-13.68v-.09h.62c1.96,0,3.1-.18,3.1-1.93v-25.42c0-1.72-1.14-1.93-3.1-1.93h-.62v-.09h12.69c8.97,.09,14.18,6.65,14.18,14.74s-4.83,14.15-13.19,14.67Zm9.96-14.67c0-8.14-4.73-14.58-11.13-14.58h-5.58v29.17h5.58c6.42,0,11.13-6.44,11.13-14.58Z"/><path class="d" d="M81.82,76.19h.12l-.42,4.99h-24.71v-.09h.62c1.96,0,3.1-.18,3.1-1.93v-25.42c0-1.72-1.14-1.93-3.1-1.93h-.62v-.09h23.97l.42,4.99h-.12c-.3-3.02-.84-4.83-4.04-4.83h-13.31v15.83c.62-2.4,2.85-3.54,6.91-3.54h2.97c1.88,0,2.11-1.04,2.11-2.83v-.11h.1v6.06h-.1v-.11c0-1.79-.2-2.83-2.11-2.83h-2.97c-4.71,0-6.91,1.56-6.91,4.9v11.82h14.05c3.2,0,3.74-1.81,4.04-4.85Z"/><path class="d" d="M122.11,58.7c0,3.7-2.18,5.94-9.15,7.87l-.15,.05c-7.83,2.22-8.75,4.49-8.75,6.01v6.53c0,1.72,1.14,1.93,3.1,1.93h.62v.09h-10.66v-.09h.62c1.96,0,3.1-.18,3.1-1.93v-25.42c0-1.72-1.14-1.93-3.1-1.93h-.62v-.09h14.85c6.84,0,10.14,2.77,10.14,6.99Zm-3.2,.02c0-4.24-2.35-6.85-6.91-6.85h-7.91v19.75c.89-2.65,5.28-4.2,8.67-5.15,4.73-1.32,6.12-4.01,6.15-7.76Z"/><path class="d" d="M151.84,81.08h.42v.09h-11.25v-.09h.87c1.96,0,3-.18,2.21-1.93l-3.67-7.94h-6.15c-5.33,0-8.7,1.7-10.34,5.22l-1.26,2.72c-.79,1.72,.25,1.93,2.21,1.93h.87v.09h-7.68v-.09h.45c1.96,0,3.2-.18,3.99-1.93l1.26-2.74v-.02l11.43-24.67,12.66,27.46c.79,1.72,2.03,1.93,3.99,1.93v-.02Zm-11.52-10l-6.94-15.06-8.75,18.89c1.86-2.59,5.03-3.83,9.62-3.83h6.07Z"/><path class="d" d="M180.49,51.71v.09h-.42c-1.93,0-3.27,.2-4.78,1.95l-10.36,11.86v13.56c0,1.72,1.14,1.93,3.1,1.93h.62v.09h-10.66v-.09h.62c1.96,0,3.1-.18,3.1-1.93v-12.63l-9.15-12.79c-1.26-1.75-2.53-1.95-4.49-1.95h-.42v-.09h11.3v.09h-.82c-1.96,0-2.97,.18-1.71,1.93l8.4,11.73,10.24-11.73c1.51-1.72,.55-1.93-1.41-1.93h-.82v-.09h7.66Z"/><path class="d" d="M203.31,73.37c0,5.6-6.32,7.85-11.87,7.85-3.97,0-8.2-1.11-10.46-3.02-1.96-1.66-2.6-4.88-.42-6.71,1.51,4.67,5.58,9.53,10.88,9.53,4.46,0,9.05-2.22,9.05-6.37s-5.15-6.37-9.72-8.16c-4.54-1.77-9.57-3.79-9.57-8.14s5.3-6.6,9.91-6.6c2.83,0,4.56,.36,6.47,1.11,2.35,.93,3.57,3.31,1.29,5.13-.89-2.88-2.88-6.01-7.76-6.01s-7.86,2.54-7.86,5.15,2.33,3.95,7.86,6.26c5.87,2.45,12.19,4.4,12.19,10Z"/><line class="e" x1=".22" y1=".5" x2="231.56" y2=".5"/><line class="e" y1="97.92" x2="231.34" y2="97.92"/></g></g></svg>