<?xml version="1.0" encoding="UTF-8"?><svg xmlns="http://www.w3.org/2000/svg" viewBox="0 0 273.77 333.34"><defs><style>.e{fill:#e3d567;}.f{fill:#e8e1d4;}.g{fill:#808661;}.h{fill:#9fb2c3;}.i{fill:#847968;}.j{fill:#d6d798;}.k{fill:#193f0d;}.l{fill:#707222;}.m{fill:none;stroke:#1d1d1b;stroke-miterlimit:10;}</style></defs><g id="a"/><g id="b"><g id="c"><path class="h" d="M62.07,246.81c-14.91-16.08-17.92-22.57-5.48-25.15,12.43-2.58,41.74-18.07,41.3-23.23s24.42,0,25.31,7.31,15.54,18.07,30.2,23.66c14.65,5.59-8.73,17.86-20.72,14.42-11.99-3.44-12.76-6.48-21.32-8.53-14.5-3.48-40.22,21.3-49.28,11.52Z"/><path class="g" d="M122.31,240.3c4.58-8.33,17.76-14.65,19.09-10.21s14.65,30.64,18.65,31.97c4,1.33,20.43,3.11,23.09-4.88s11.1-37.74,19.54-37.74,40.41-4,49.73,13.77c9.33,17.76,28.14,73.83-2.41,84.99-89.64,32.74-128.04,6.87-132.49-25.1-4.44-31.97,6.12-14.15,7.45-28.81,1.33-14.65-7.55-15.1-2.66-23.98Z"/><path class="e" d="M70.35,158.6c13.97-2.49,21.76-14.65,26.64-17.76,4.88-3.11,18.65-22.2,24.42-16.43,5.77,5.77,.89,34.19,11.1,29.75,10.21-4.44,17.32,7.55,5.77,6.66-11.55-.89-18.65,7.1-11.55,7.55,7.1,.44,16.43,1.33,17.76-4,1.33-5.33,.44,15.1-6.22,15.99-6.66,.89-1.33,12.88,1.78,12.88s19.98,3.55,8.88,4.88c-11.1,1.33-23.09,6.22-11.1,8.88s14.21-2.22,17.76,4c3.55,6.22,15.54,14.21,16.87,6.66,1.33-7.55,7.55-16.43,15.99-15.99s3.55,6.22,16.43,5.77c12.88-.44-9.26,37.11-17.29,33.43-8.03-3.68,10.63,22.08-8.47,21.63-19.09-.44-42.25,9.26-36.67-6.25,5.58-15.51-5.07-46.59-13.51-41.71-8.44,4.88-18.86-5.58-23.7-6.21-10.21-1.33-10.93,5.32-19.37,3.99-8.44-1.33-11.1,18.65-18.21,14.65s-1.33,17.76-11.99,11.55c-10.66-6.22-36.86-14.21-27.53-26.2,9.33-11.99-3.55-19.54,3.55-27.98s26.2-23.53,38.63-25.76Z"/><path class="j" d="M179.15,105.76c-5.49,5.49-14.21,16.43-9.77,19.54,4.44,3.11-2.22,5.77-16.43,4.44-14.21-1.33-25.31,12.88-23.98,19.98,1.33,7.1-25.31,15.54-10.21,20.87,15.1,5.33,19.98,31.53,24.42,37.74,4.44,6.22,53.29,15.54,61.72-.89,8.44-16.43,99.47-46.18,58.17-75.93-41.3-29.75-79.93-29.75-83.93-25.76Z"/><path class="i" d="M26.39,245.63c3.76-10.36,29.59-25.12,30.6-10.13,.94,13.85,27.33,15.71,10.33,33.63-14.62,15.42-31.16,31.12-47.59,20.46-16.43-10.66-29.31-33.3-10.21-34.64,19.09-1.33,15.23-4.79,16.87-9.33Z"/><path class="h" d="M160.94,110.2c-9.94,4.68-34.19,19.09-34.64,24.87-.44,5.77-6.66,17.76,.44,17.32,7.1-.44,24.71-22.05,34.19-28.42s35.52-10.21,36.41-23.53c.89-13.32-28.86,6.22-36.41,9.77Z"/><path class="l" d="M203.13,13.84C188.02,.45,129.41-6.15,130.75,7.62c1.33,13.77-7.55,65.72,2.66,67.05,10.21,1.33,12.88,9.33,19.09,11.55,6.22,2.22,31.08-10.21,60.39-4.44,29.31,5.77,8.88,29.75,24.42,24.42,50.24-17.23,1.78-20.43,3.11-41.3,1.33-20.87,24.87-38.63,.89-39.96-23.98-1.33-27.98,8.44-29.75,.89-1.78-7.55-5.69-9.56-8.44-11.99Z"/><path class="k" d="M108.54,84.88c6.14-9.82,35.52-19.98,37.74-11.99,2.22,7.99,2.22,19.09,9.77,15.99,7.55-3.11,21.31,0,19.09,7.99-2.22,7.99-17.76,25.31-24.87,26.64-7.1,1.33-19.09,20.43-23.98,11.55-4.88-8.88-17.76-4.88-20.43,0-2.66,4.88-6.22,23.09-14.21,19.09s-29.75-7.1-25.76-24.87c4-17.76,16.43-43.96,23.09-41.3s10.66,11.1,19.54-3.11Z"/><path class="m" d="M160.28,25.87c1.62-.46-2.18-4.12-2.79-4.97s4.6-5.94,8.36-4.72,2.06,3.51,4.97,3.76,6.18-1.21,6.54-2.42,5.69,2.06,7.39,1.57,4.72-2.06,4.24,.73c-.48,2.79-2.18,7.99-.73,9.08s7.51,2.91,8.36,1.94c.85-.97,6.18-.85,9.33,2.66,3.15,3.51,5.21,7.51,7.75,7.63s7.51-.12,11.02,2.42,4.6,8.72,6.42,9.57,1.57,6.9-5.69,5.21-11.14-.97-11.87-3.03c-.73-2.06-2.91-1.7-4.97,.36-2.06,2.06-15.14,4.11-17.44,2.96-2.3-1.15-10.42-1.22-10.9,.33s-.61,5.79,0,6.76-4,2.06-6.42,1.7-2.91-1.09-4.97,.73c-2.06,1.82-9.21,9.57-10.78,9.69s-1.7-1.57-4.36,0c-2.66,1.57-7.63,4.72-7.99,6.3s-.48,3.27,0,4-2.18,2.54-2.18,4.12-.97,4.85,0,5.09,7.99-.48,9.93-3.03,11.39-2.54,12.96-.24,3.76,2.06,4.48,3.88-.36,5.94-.85,6.3-4.36,0-4.85,2.42-1.57,5.69-1.33,6.78,3.63,4.85,11.51,3.51c7.87-1.33,12.23-4,12.84-4.97s6.9,3.39,5.33,4.72-9.93,5.94-2.91,7.75c7.03,1.82-5.9,5.57-3.07,7.27s13.25,.12,15.91,1.33,5.69,2.42,5.09,6.18c-.61,3.76-5.69,2.79-6.3,3.03s4.6,4.36,3.63,5.69-4.85,3.63-5.09,7.27-.12,4.6,0,6.54,3.27,5.57,5.69,6.54c2.42,.97,4.85,.48,4.85,5.45s.85,9.21-2.18,7.75-4.85,0-4.97,3.03-2.18,1.94-1.7,5.09c.48,3.15,1.7,6.78-1.45,6.42-3.15-.36-6.54,1.94-6.9,4.85-.36,2.91-3.27,16.96-3.03,18.65,.24,1.7-4,.85-4.48,1.82-.48,.97-1.33,2.91-.85,3.76s3.76,2.06,1.21,3.88c-2.54,1.82,1.45,3.39,1.21,4.48s-.81,6.66-.65,7.39,3.56,.61,4.28,0,.73-6.78,4.36-7.39c3.63-.61,5.33-.48,5.81,1.7s4.72,2.79,5.94,1.57,6.9-6.66,11.02-6.18c4.12,.48,16.23,1.21,17.32,2.18s-1.33,8.48-.73,10.3c.61,1.82,2.06,12.36,9.08,15.02,7.03,2.66,.73,12.48,6.06,24.71,5.33,12.23-12.84,19.99-15.26,24.71-2.42,4.72-5.81,6.78-9.69,5.33s-5.57,11.63-12.11,11.39-7.87-5.09-12.11-3.76-4.48,4.6-8.6,4.6-5.81,3.39-6.3,4.97c-.48,1.57-4.36,2.3-5.33,0s-1.82-1.45-4.6,.61c-2.79,2.06-4.85,.12-9.81-7.99-4.97-8.12,.97-5.45-3.76-12.96-4.72-7.51-7.99-11.39-7.87-13.45s-5.81-6.66-8.6-2.91-.85-8.48,.48-9.69,.73-3.51-5.21-4-10.05-3.88-7.63-12.36c2.42-8.48,7.76-7.63,8.12-11.02s-2.79-9.93-3.94-11.27-4.06-5.57-6-5.94-2.06-4.97,.61-6.06,3.76-2.3,2.66-3.63-4.85-2.54-6.9-1.45-4.48,.48-5.57-.48c-1.09-.97-22.65,.36-24.83,1.7s-8.48,7.63-11.87,8.12c-3.39,.48-6.78,3.27-8.6,1.57-1.82-1.7-6.9-6.78-7.87-5.69s-1.94,2.66-1.94,3.88-3.63,4-3.63,4.85-6.78,5.57-6.66,7.51,1.94,.61,2.42,1.45,2.3,4.36,4.6,4.24c2.3-.12,5.33-.97,5.45,0s-1.45,7.87-6.54,7.87-9.93,5.94-10.3,6.66-.12,2.79-6.18,4.48c-6.06,1.7-5.94-1.09-8.36-1.45-2.42-.36-4.36,1.7-5.09,1.82s-6.06-.97-6.78-.48-2.91,3.39-4,2.91c-1.09-.48,1.09-2.54,3.15-4.85s.97-5.45-.24-6.54-3.15-3.03,1.7-3.76c4.85-.73,4.24-3.51,4.48-4.24s2.18,.24,4.48-.24c2.3-.48,2.79-2.79,4.36-2.06,1.57,.73,3.76,1.45,4.6,.61s1.21-4-.85-5.69c-2.06-1.7-.97-6.3,1.21-7.27s8.6-6.9,3.27-12.23c-5.33-5.33-15.38-8.72-11.87-15.87,3.51-7.15,10.05-13.08,10.9-14.29s1.22,1.03-4.97-8.84c-2.06-3.28,43.93-33.2,44.7-35.25,1.09-2.91,0-3.51-1.82-5.69-1.82-2.18,.61-7.51,2.79-8.48,2.18-.97,1.21-8.48-.97-12.11-2.18-3.63,2.18-10.9,4.48-12.48,2.3-1.57,20.35-3.88,21.2-4.85s7.99-6.54,8.12-9.45-4.6-4.97-.12-7.99,13.69-6.42,16.78-9.93,16.17-14.29,17.26-16.96-.24-6.78,.48-8.48,5.57,.85,6.54-.36,8.24-7.27,8.6-9.21,1.45-9.33-6.18-9.08c-7.63,.24-4.48,2.79-7.15,2.79s-4.48,1.33-5.81,.12-2.91-10.42,.24-12.11c3.15-1.7,6.06-5.69,7.75-6.18Z"/></g><g id="d"><path class="f" d="M36.39,252.34c-3.95,0-7.17,3.18-7.21,7.13,0,4.94,6.35,10.43,6.62,10.67,.34,.29,.83,.29,1.17,0,.32-.23,6.62-5.73,6.62-10.67-.04-3.95-3.25-7.13-7.21-7.13Zm0,15.9c-1.5-1.43-5.41-5.41-5.41-8.77,0-2.99,2.42-5.41,5.41-5.41s5.41,2.42,5.41,5.41c0,3.33-3.9,7.33-5.41,8.77Z"/><path class="f" d="M107.41,190.63c-3.95,0-7.17,3.18-7.21,7.13,0,4.94,6.35,10.43,6.62,10.67,.34,.29,.83,.29,1.17,0,.32-.23,6.62-5.73,6.62-10.67-.04-3.95-3.25-7.13-7.21-7.13Zm0,15.9c-1.5-1.43-5.41-5.41-5.41-8.77,0-2.99,2.42-5.41,5.41-5.41s5.41,2.42,5.41,5.41c0,3.33-3.9,7.33-5.41,8.77Z"/><path class="f" d="M105.41,145.63c-3.95,0-7.17,3.18-7.21,7.13,0,4.94,6.35,10.43,6.62,10.67,.34,.29,.83,.29,1.17,0,.32-.23,6.62-5.73,6.62-10.67-.04-3.95-3.25-7.13-7.21-7.13Zm0,15.9c-1.5-1.43-5.41-5.41-5.41-8.77,0-2.99,2.42-5.41,5.41-5.41s5.41,2.42,5.41,5.41c0,3.33-3.9,7.33-5.41,8.77Z"/><path class="f" d="M152.41,234.63c-3.95,0-7.17,3.18-7.21,7.13,0,4.94,6.35,10.43,6.62,10.67,.34,.29,.83,.29,1.17,0,.32-.23,6.62-5.73,6.62-10.67-.04-3.95-3.25-7.13-7.21-7.13Zm0,15.9c-1.5-1.43-5.41-5.41-5.41-8.77,0-2.99,2.42-5.41,5.41-5.41s5.41,2.42,5.41,5.41c0,3.33-3.9,7.33-5.41,8.77Z"/><path class="f" d="M170.97,279.51c-3.95,0-7.17,3.18-7.21,7.13,0,4.94,6.35,10.43,6.62,10.67,.34,.29,.83,.29,1.17,0,.32-.23,6.62-5.73,6.62-10.67-.04-3.95-3.25-7.13-7.21-7.13Zm0,15.9c-1.5-1.43-5.41-5.41-5.41-8.77,0-2.99,2.42-5.41,5.41-5.41s5.41,2.42,5.41,5.41c0,3.33-3.9,7.33-5.41,8.77Z"/></g></g></svg>